<svg width="168" height="136" viewBox="0 0 168 136" fill="none" xmlns="http://www.w3.org/2000/svg">
<path d="M163.48 61.1593L163.482 61.1608C164.481 61.998 165.285 63.0443 165.837 64.2258L164.931 64.6489L165.837 64.2258C166.389 65.4074 166.675 66.6955 166.675 67.9995C166.675 69.3035 166.389 70.5916 165.837 71.7732L164.931 71.3501L165.837 71.7732C165.285 72.9547 164.481 74.001 163.482 74.8382L163.48 74.8398L131.802 101.238C131.801 101.239 131.801 101.239 131.8 101.239C130.196 102.582 128.17 103.319 126.078 103.32H126.069C124.769 103.309 123.487 103.019 122.309 102.468C121.131 101.918 120.086 101.12 119.244 100.13C119.244 100.13 119.244 100.129 119.243 100.129L120.005 99.4816C119.33 98.6879 118.819 97.7677 118.503 96.7745C118.187 95.7814 118.071 94.7353 118.164 93.6972C118.256 92.659 118.554 91.6496 119.04 90.7277C119.526 89.8058 120.191 88.9899 120.995 88.3276L163.48 61.1593ZM163.48 61.1593L131.8 34.7592L131.792 34.7528L131.784 34.7466C129.964 33.2898 127.645 32.6039 125.325 32.8356C123.005 33.0674 120.868 34.1984 119.371 35.9864C117.874 37.7745 117.138 40.0774 117.318 42.4021C117.499 44.7268 118.582 46.8884 120.337 48.4239L120.346 48.4321L120.356 48.44L143.852 67.9995L120.36 87.5555C120.359 87.5561 120.359 87.5566 120.358 87.5572L163.48 61.1593ZM62.7204 135C64.5526 135.002 66.3411 134.44 67.8428 133.39C69.3458 132.34 70.4884 130.851 71.1151 129.127C71.1151 129.127 71.1151 129.127 71.1151 129.127L113.355 12.9671L113.358 12.9602C114.149 10.7338 114.032 8.28519 113.031 6.14465C112.03 4.00411 110.227 2.34389 108.011 1.52348L108.011 1.5234L107.998 1.51903C105.772 0.727596 103.323 0.844973 101.183 1.84575C99.0422 2.84652 97.382 4.65015 96.5615 6.86608L96.5596 6.87154L54.3194 123.032L54.317 123.039C53.5255 125.265 53.6429 127.714 54.6437 129.854C55.6444 131.995 57.4481 133.655 59.664 134.476L59.6718 134.478C60.6492 134.831 61.6814 135.008 62.7204 135ZM62.7204 135C62.7187 135 62.717 135 62.7154 135L62.7172 134L62.7253 135C62.7237 135 62.722 135 62.7204 135ZM47.32 48.4391L47.3289 48.4316L47.3377 48.4239C49.0924 46.8884 50.176 44.7268 50.3565 42.4021C50.537 40.0774 49.8001 37.7745 48.3036 35.9864C46.8071 34.1984 44.6699 33.0674 42.3498 32.8356C40.0296 32.6039 37.711 33.2898 35.8904 34.7466L35.8826 34.7528L35.8749 34.7592L4.19483 61.1593L4.19297 61.1608C3.19324 61.998 2.38923 63.0443 1.83756 64.2258C1.2859 65.4074 1 66.6955 1 67.9995C1 69.3035 1.2859 70.5916 1.83756 71.7732C2.38923 72.9547 3.19324 74.001 4.19297 74.8382L4.19483 74.8397L35.8657 101.232C36.7576 102.011 37.7956 102.604 38.9191 102.977C40.0465 103.351 41.2373 103.497 42.4217 103.405C43.6061 103.313 44.7601 102.985 45.8162 102.441C46.8722 101.897 47.809 101.148 48.5714 100.237C49.3339 99.3258 49.9067 98.2717 50.2562 97.1363C50.6058 96.001 50.725 94.8072 50.6069 93.6251C50.4889 92.4431 50.1359 91.2965 49.5687 90.2527C49.0032 89.2121 48.2361 88.2945 47.3123 87.5535L23.8856 67.9995L47.32 48.4391Z" stroke="white" stroke-width="2"/>
</svg>
