<svg width="97" height="97" viewBox="0 0 97 97" fill="none" xmlns="http://www.w3.org/2000/svg">
<path d="M6.79852 1.79492H90.7692C93.5306 1.79492 95.7692 4.0335 95.7692 6.79492V90.7656C95.7692 93.527 93.5306 95.7656 90.7692 95.7656H6.79852C4.0371 95.7656 1.79852 93.527 1.79852 90.7656V6.79492C1.79852 4.0335 4.0371 1.79492 6.79852 1.79492Z" stroke="white" stroke-width="2"/>
<path d="M48.5762 45.6643V76.8236C48.5762 83.8864 37.7743 90.5337 30.296 79.3164" stroke="white" stroke-width="2"/>
<path d="M83.0591 53.558C80.1509 48.5725 70.1799 44.4179 66.0253 53.558C64.7375 56.3912 64.7789 62.8019 71.0108 64.3599C79.3199 66.4372 85.2219 72.3145 84.7209 76.8237C84.3054 80.5627 83.4745 84.7173 74.7499 85.1328C67.7702 85.4652 63.5326 80.8397 62.2862 78.4855" stroke="white" stroke-width="2"/>
</svg>
