<svg width="167" height="134" viewBox="0 0 167 134" fill="none" xmlns="http://www.w3.org/2000/svg">
<path d="M163.48 60.1593L163.482 60.1608C164.481 60.998 165.285 62.0443 165.837 63.2258C166.389 64.4074 166.675 65.6955 166.675 66.9995C166.675 68.3035 166.389 69.5916 165.837 70.7732C165.285 71.9548 164.481 73.001 163.482 73.8382L163.48 73.8398L131.802 100.238C130.197 101.582 128.171 102.319 126.078 102.32H126.07C124.769 102.309 123.487 102.019 122.309 101.468C121.131 100.918 120.086 100.12 119.244 99.1297L163.48 60.1593ZM163.48 60.1593L131.8 33.7592L131.792 33.7528L131.784 33.7466C129.964 32.2898 127.645 31.6039 125.325 31.8356C123.005 32.0674 120.868 33.1984 119.371 34.9864C117.874 36.7745 117.138 39.0774 117.318 41.4021C117.499 43.7268 118.582 45.8884 120.337 47.4239L120.346 47.4321L120.356 47.44L143.852 66.9995L163.48 60.1593ZM62.7204 134C64.5526 134.002 66.3411 133.44 67.8428 132.39C69.3458 131.34 70.4884 129.851 71.1151 128.127C71.1151 128.127 71.1151 128.127 71.1151 128.127L113.355 11.9671L113.358 11.9602C114.149 9.73378 114.032 7.28519 113.031 5.14465C112.03 3.00411 110.227 1.34389 108.011 0.523478L108.011 0.523398L107.998 0.519029C105.772 -0.272404 103.323 -0.155027 101.183 0.845747C99.0422 1.84652 97.382 3.65015 96.5615 5.86608L96.5596 5.87154L54.3194 122.032L54.317 122.039C53.5255 124.265 53.6429 126.714 54.6437 128.854C55.6444 130.995 57.4481 132.655 59.664 133.476L59.6718 133.478C60.6492 133.831 61.6814 134.008 62.7204 134ZM62.7204 134C62.7187 134 62.717 134 62.7154 134L62.7172 133L62.7253 134C62.7237 134 62.722 134 62.7204 134ZM144.634 66.3489L145.416 66.9995L120.995 87.3276C120.191 87.9899 119.526 88.8058 119.04 89.7277C118.554 90.6496 118.256 91.659 118.164 92.6972C118.071 93.7353 118.187 94.7814 118.503 95.7745C118.819 96.7676 119.33 97.6879 120.005 98.4816M146.055 67.7681L146.979 66.9995L146.055 66.2309L121.645 45.9111C120.289 44.7203 119.452 43.0468 119.312 41.2473C119.172 39.4438 119.744 37.6572 120.905 36.2701C122.066 34.8829 123.724 34.0055 125.524 33.8257C127.32 33.6463 129.116 34.1762 130.527 35.3022C130.53 35.3042 130.532 35.3062 130.535 35.3082L162.198 61.6942C162.198 61.6945 162.198 61.6948 162.199 61.6951C162.974 62.3445 163.597 63.1558 164.025 64.0719C164.453 64.9886 164.675 65.9879 164.675 66.9995C164.675 68.0111 164.453 69.0105 164.025 69.9271C163.597 70.8437 162.973 71.6553 162.198 72.3049L130.519 98.7034L130.517 98.7049C129.274 99.7465 127.704 100.318 126.081 100.32C125.07 100.311 124.072 100.085 123.156 99.6565C122.238 99.2276 121.423 98.606 120.767 97.8341L120.767 97.8335C120.178 97.1409 119.732 96.3378 119.456 95.4711C119.18 94.6045 119.079 93.6916 119.16 92.7856C119.24 91.8796 119.5 90.9987 119.924 90.1942C120.349 89.3897 120.929 88.6777 121.631 88.0997L121.635 88.0961L146.055 67.7681ZM62.7191 132L62.7092 132C61.9067 132.006 61.1095 131.87 60.3546 131.599C58.6336 130.96 57.2329 129.67 56.4554 128.007C55.6779 126.344 55.5863 124.442 56.2004 122.712C56.2007 122.711 56.2011 122.71 56.2014 122.709L98.4371 6.56049C98.4375 6.5594 98.4379 6.55832 98.4383 6.55723C99.0766 4.83598 100.367 3.43506 102.03 2.65751C103.692 1.88039 105.593 1.78844 107.322 2.40135C109.042 3.03996 110.442 4.32957 111.219 5.99171C111.997 7.65456 112.088 9.55652 111.475 11.2864C111.474 11.2877 111.474 11.289 111.473 11.2904L69.2355 127.444L69.2354 127.444C68.7493 128.781 67.8629 129.936 66.6968 130.751C65.5308 131.566 64.1418 132.002 62.7191 132ZM47.32 47.4391L47.3289 47.4316L47.3377 47.4239C49.0924 45.8884 50.176 43.7268 50.3565 41.4021C50.537 39.0774 49.8001 36.7745 48.3036 34.9864C46.8071 33.1984 44.6699 32.0674 42.3498 31.8356C40.0296 31.6039 37.711 32.2898 35.8904 33.7466L35.8826 33.7528L35.8749 33.7592L4.19483 60.1593L4.19297 60.1608C3.19324 60.998 2.38923 62.0443 1.83756 63.2258C1.2859 64.4074 1 65.6955 1 66.9995C1 68.3035 1.2859 69.5916 1.83756 70.7732C2.38923 71.9548 3.19324 73.001 4.19296 73.8382L4.19483 73.8397L35.8658 100.232C36.7577 101.011 37.7956 101.604 38.9191 101.977C40.0465 102.351 41.2373 102.497 42.4217 102.405C43.6061 102.313 44.7601 101.985 45.8162 101.441C46.8722 100.897 47.809 100.148 48.5714 99.2368C49.3339 98.3258 49.9067 97.2717 50.2562 96.1363C50.6058 95.001 50.725 93.8072 50.6069 92.6251C50.4889 91.4431 50.1359 90.2965 49.5687 89.2527C49.0032 88.212 48.2361 87.2944 47.3122 86.5534L23.8856 66.9995L47.32 47.4391Z" stroke="white" stroke-width="2"/>
</svg>
