<svg width="76" height="96" viewBox="0 0 76 96" fill="none" xmlns="http://www.w3.org/2000/svg">
<path d="M55.9429 69.9752C49.9915 71.0206 43.9415 71.5345 37.8795 71.5093L37.8714 71.5093C31.8092 71.5334 25.7592 71.0184 19.8079 69.9718L19.8078 69.9718C16.5191 69.3938 13.2922 68.5579 10.1636 67.4734C6.72044 66.2459 4.4515 64.9775 3.06422 63.8675C1.62246 62.7139 1.31207 61.8828 1.31207 61.5584V51.577C2.94152 52.386 4.62847 53.0955 6.36179 53.7006L6.37308 53.7046L6.38445 53.7082C16.4907 56.9674 27.1569 58.5484 37.8751 58.3769C48.5922 58.5539 59.2583 56.9788 69.3657 53.7255L69.3769 53.7219L69.388 53.7181C71.1221 53.1145 72.8095 52.4053 74.4386 51.5954V61.5652C74.4386 61.889 74.1287 62.7219 72.6888 63.8756C71.3028 64.9861 69.0343 66.2543 65.5876 67.4767C62.4588 68.5611 59.2318 69.3972 55.9429 69.9752ZM55.9429 69.9752L56.1159 70.9601M55.9429 69.9752L56.1159 70.9601M56.1159 70.9601C50.1058 72.0159 43.9966 72.5348 37.8753 72.5093L75.4386 51.0818V61.5652C75.4386 63.159 72.9465 65.9285 65.9187 68.4203C62.738 69.523 59.4581 70.3727 56.1159 70.9601ZM69.3844 76.6736L69.3666 76.6794C59.261 79.9424 48.5946 81.5269 37.8756 81.3585C27.1558 81.5318 16.4882 79.9471 6.38367 76.6793L6.37226 76.6756L6.37228 76.6755C6.24383 76.6322 6.0781 76.5704 5.94345 76.5201C5.87095 76.4931 5.80746 76.4694 5.76364 76.4538L5.75895 76.4521C4.23569 75.9005 2.75068 75.2653 1.31207 74.5502V82.624C1.31207 84.0553 2.12654 85.5563 3.90831 87.0525C5.68493 88.5443 8.31508 89.9328 11.6523 91.1185C18.3179 93.4867 27.5903 94.9707 37.8753 94.9707C48.1604 94.9707 57.4328 93.4867 64.0984 91.1185C67.4356 89.9328 70.0658 88.5443 71.8424 87.0525C73.6241 85.5563 74.4386 84.0553 74.4386 82.624V74.5502C73.0007 75.265 71.5164 75.8999 69.9939 76.4513L69.3844 76.6736ZM69.3844 76.6736L69.402 76.6672L69.9917 76.4521L69.3844 76.6736ZM37.8933 48.5245L37.8753 48.5242L37.8572 48.5245C28.4294 48.6953 19.0455 47.3277 10.1518 44.4877C6.71461 43.2646 4.4498 42.0005 3.06477 40.8906C1.62667 39.7383 1.31207 38.9009 1.31207 38.5597V28.1299C3.38681 29.2767 5.57286 30.2482 7.84294 31.0321L7.85169 31.0351L7.8605 31.038C17.489 34.1644 27.6556 35.6899 37.8752 35.5427C48.096 35.6927 58.2639 34.1647 67.8909 31.0309L67.8994 31.0281L67.9079 31.0252C70.1771 30.2413 72.363 29.2712 74.4386 28.1271V38.5768C74.4386 38.9006 74.1287 39.7335 72.6888 40.8872C71.3044 41.9964 69.0394 43.2631 65.5992 44.4841C56.7056 47.3254 47.3216 48.6942 37.8933 48.5245ZM74.4386 50.4754C72.7105 51.3604 70.9126 52.1286 69.0593 52.7736C59.0521 55.9947 48.4895 57.5539 37.8753 57.3768L74.4386 50.4754Z" stroke="white" stroke-width="2"/>
<path d="M74.4386 13.3468C74.4386 14.779 73.6244 16.2802 71.8435 17.7763C70.0676 19.2681 67.4384 20.6566 64.1018 21.8421C57.4374 24.2101 48.165 25.6936 37.8753 25.6936C27.5857 25.6936 18.3133 24.2101 11.6489 21.8421C8.31229 20.6566 5.68306 19.2681 3.9072 17.7763C2.12628 16.2802 1.31207 14.779 1.31207 13.3468C1.31207 11.9146 2.12628 10.4134 3.9072 8.9173C5.68306 7.42547 8.31229 6.03702 11.6489 4.85147C18.3133 2.48351 27.5857 1 37.8753 1C48.165 1 57.4374 2.48351 64.1018 4.85147C67.4384 6.03702 70.0676 7.42547 71.8435 8.9173C73.6244 10.4134 74.4386 11.9146 74.4386 13.3468Z" stroke="white" stroke-width="2"/>
</svg>
